<svg width="107" height="107" viewBox="0 0 107 107" fill="none" xmlns="http://www.w3.org/2000/svg">
<rect width="107" height="107" rx="17" fill="#FF5359" fill-opacity="0.1"/>
<path d="M32.5833 62.75C29.8417 62.75 27.3042 63.7125 25.2917 65.3167C22.6083 67.4458 20.9167 70.7417 20.9167 74.4167C20.9167 76.6042 21.5292 78.675 22.6083 80.425C24.6208 83.8083 28.325 86.0833 32.5833 86.0833C35.5292 86.0833 38.2125 85.0042 40.2542 83.1667C41.1583 82.4083 41.9458 81.475 42.5583 80.425C43.6375 78.675 44.25 76.6042 44.25 74.4167C44.25 67.9708 39.0292 62.75 32.5833 62.75ZM38.6208 73.1625L32.4083 78.9083C32 79.2874 31.4458 79.4916 30.9208 79.4916C30.3666 79.4916 29.8125 79.2876 29.375 78.8501L26.4875 75.9626C25.6417 75.1168 25.6417 73.7166 26.4875 72.8707C27.3333 72.0249 28.7333 72.0249 29.5792 72.8707L30.9791 74.2709L35.6458 69.9541C36.5208 69.1374 37.9208 69.1959 38.7375 70.0709C39.5542 70.9459 39.4958 72.3459 38.6208 73.1625Z" fill="#FF5359"/>
<path opacity="0.4" d="M74.8166 56.7707H80.7083V52.5707C80.7083 46.5332 75.7792 41.604 69.7417 41.604H36.2583C30.2208 41.604 25.2917 46.5332 25.2917 52.5707V65.3165C27.3042 63.7124 29.8417 62.7498 32.5833 62.7498C39.0292 62.7498 44.25 67.9707 44.25 74.4165C44.25 76.604 43.6375 78.6748 42.5583 80.4248C41.9458 81.4748 41.1583 82.4082 40.2542 83.1665H69.7417C75.7792 83.1665 80.7083 78.2373 80.7083 72.1998V68.729H75.1667C72.0167 68.729 69.1292 66.4248 68.8667 63.2748C68.6917 61.4373 69.3916 59.7165 70.6166 58.5206C71.6958 57.4123 73.1833 56.7707 74.8166 56.7707Z" fill="#FF5359"/>
<path d="M61.3125 30.5211V41.6044H36.2583C30.2208 41.6044 25.2917 46.5336 25.2917 52.5711V41.8669C25.2917 38.3961 27.4208 35.3043 30.6583 34.0793L53.8167 25.3293C57.4333 23.9877 61.3125 26.6419 61.3125 30.5211Z" fill="#FF5359"/>
<path d="M83.8 59.7459V65.7544C83.8 67.3585 82.5167 68.6709 80.8833 68.7293H75.1667C72.0167 68.7293 69.1292 66.4251 68.8667 63.2751C68.6917 61.4376 69.3916 59.7168 70.6166 58.5209C71.6958 57.4126 73.1833 56.771 74.8166 56.771H80.8833C82.5167 56.8293 83.8 58.1417 83.8 59.7459Z" fill="#FF5359"/>
<path d="M58.8333 56.1875H38.4167C37.2208 56.1875 36.2292 55.1958 36.2292 54C36.2292 52.8042 37.2208 51.8125 38.4167 51.8125H58.8333C60.0292 51.8125 61.0208 52.8042 61.0208 54C61.0208 55.1958 60.0292 56.1875 58.8333 56.1875Z" fill="#FF5359"/>
</svg>
