<svg width="107" height="107" viewBox="0 0 107 107" fill="none" xmlns="http://www.w3.org/2000/svg">
<rect width="107" height="107" rx="17" fill="#24B0FF" fill-opacity="0.1"/>
<path opacity="0.4" d="M77.2458 48.1665V71.4998C77.2458 80.2498 74.3292 83.1665 65.5792 83.1665H42.2458C33.4958 83.1665 30.5792 80.2498 30.5792 71.4998V48.1665H77.2458Z" fill="#24B0FF"/>
<path d="M81.7083 39.4168V42.3335C81.7083 45.5418 80.1625 48.1668 75.875 48.1668H32.125C27.6625 48.1668 26.2917 45.5418 26.2917 42.3335V39.4168C26.2917 36.2085 27.6625 33.5835 32.125 33.5835H75.875C80.1625 33.5835 81.7083 36.2085 81.7083 39.4168Z" fill="#24B0FF"/>
<path opacity="0.4" d="M52.95 33.5835H36.85C35.8583 32.5044 35.8875 30.8419 36.9375 29.7919L41.0792 25.6502C42.1583 24.571 43.9375 24.571 45.0167 25.6502L52.95 33.5835Z" fill="#24B0FF"/>
<path opacity="0.4" d="M71.1208 33.5835H55.0208L62.9542 25.6502C64.0333 24.571 65.8125 24.571 66.8917 25.6502L71.0333 29.7919C72.0833 30.8419 72.1125 32.5044 71.1208 33.5835Z" fill="#24B0FF"/>
<path opacity="0.6" d="M45.075 48.1665V63.1582C45.075 65.4915 47.6417 66.8623 49.5958 65.6082L52.3375 63.7998C53.3292 63.1582 54.5833 63.1582 55.5458 63.7998L58.1417 65.5498C60.0667 66.8332 62.6625 65.4623 62.6625 63.129V48.1665H45.075Z" fill="#24B0FF"/>
</svg>
