<svg width="107" height="107" viewBox="0 0 107 107" fill="none" xmlns="http://www.w3.org/2000/svg">
<rect width="107" height="107" rx="17" fill="#FFBD2E" fill-opacity="0.1"/>
<path opacity="0.4" d="M65.2208 24.8335H40.8084C30.1625 24.8335 23.8333 31.1627 23.8333 41.7793V66.1918C23.8333 76.8085 30.1625 83.1377 40.7792 83.1377H65.1917C75.8083 83.1377 82.1375 76.8085 82.1375 66.1918V41.7793C82.1666 31.1627 75.8375 24.8335 65.2208 24.8335Z" fill="#FFBD2E"/>
<path opacity="0.6" d="M56.5 61.0002C56.5 64.0919 55.1583 66.8919 53 68.8169C51.1333 70.5086 48.6833 71.5002 45.9999 71.5002C40.1958 71.5002 35.5 66.8044 35.5 61.0002C35.5 56.1586 38.7959 52.0752 43.2292 50.8794C44.4251 53.9127 47.0208 56.2752 50.2291 57.1502C51.1041 57.3836 52.0375 57.5294 53 57.5294C53.9625 57.5294 54.8959 57.4127 55.7709 57.1502C56.2375 58.3169 56.5 59.6294 56.5 61.0002Z" fill="#FFBD2E"/>
<path d="M63.4999 47C63.4999 48.3708 63.2374 49.6833 62.7708 50.8792C61.5749 53.9125 58.9792 56.275 55.7709 57.15C54.8959 57.3833 53.9625 57.5292 53 57.5292C52.0375 57.5292 51.1041 57.4125 50.2291 57.15C47.0208 56.275 44.4251 53.9417 43.2292 50.8792C42.7626 49.6833 42.5001 48.3708 42.5001 47C42.5001 41.1958 47.1958 36.5 53 36.5C58.8042 36.5 63.4999 41.1958 63.4999 47Z" fill="#FFBD2E"/>
<path opacity="0.4" d="M70.5 61.0001C70.5 66.8043 65.8042 71.5001 60.0001 71.5001C57.3167 71.5001 54.8667 70.4793 53 68.8168C55.1583 66.9209 56.5 64.1209 56.5 61.0001C56.5 59.6293 56.2375 58.3168 55.7709 57.1209C58.9792 56.2459 61.5749 53.9126 62.7708 50.8501C67.2041 52.0751 70.5 56.1584 70.5 61.0001Z" fill="#FFBD2E"/>
</svg>
