<svg width="107" height="107" viewBox="0 0 107 107" fill="none" xmlns="http://www.w3.org/2000/svg">
<rect width="107" height="107" rx="17" fill="#92CA63" fill-opacity="0.1"/>
<path opacity="0.4" d="M54 82.8748C70.1083 82.8748 83.1666 69.8165 83.1666 53.7082C83.1666 37.5999 70.1083 24.5415 54 24.5415C37.8917 24.5415 24.8333 37.5999 24.8333 53.7082C24.8333 69.8165 37.8917 82.8748 54 82.8748Z" fill="#92CA63"/>
<path d="M60.5917 54L56.1875 52.4542V42.5667H57.2375C59.6 42.5667 61.525 44.6375 61.525 47.175C61.525 48.3708 62.5167 49.3625 63.7125 49.3625C64.9084 49.3625 65.9 48.3708 65.9 47.175C65.9 42.2167 62.0209 38.1917 57.2375 38.1917H56.1875V36.5C56.1875 35.3042 55.1959 34.3125 54 34.3125C52.8042 34.3125 51.8125 35.3042 51.8125 36.5V38.1917H49.9167C45.6 38.1917 42.0709 41.8375 42.0709 46.3C42.0709 51.5208 45.1042 53.1833 47.4084 54L51.8125 55.5458V65.4042H50.7625C48.4 65.4042 46.475 63.3333 46.475 60.7958C46.475 59.6 45.4834 58.6083 44.2875 58.6083C43.0917 58.6083 42.1 59.6 42.1 60.7958C42.1 65.7542 45.9792 69.7792 50.7625 69.7792H51.8125V71.5C51.8125 72.6958 52.8042 73.6875 54 73.6875C55.1959 73.6875 56.1875 72.6958 56.1875 71.5V69.8083H58.0834C62.4 69.8083 65.9292 66.1625 65.9292 61.7C65.9 56.45 62.8667 54.7875 60.5917 54ZM48.8667 49.8875C47.3792 49.3625 46.475 48.8667 46.475 46.3292C46.475 44.2583 48.0209 42.5958 49.9459 42.5958H51.8417V50.9375L48.8667 49.8875ZM58.0834 65.4333H56.1875V57.0917L59.1334 58.1125C60.6209 58.6375 61.525 59.1333 61.525 61.6708C61.525 63.7417 59.9792 65.4333 58.0834 65.4333Z" fill="#92CA63"/>
</svg>
